<?xml version="1.0"?>
<svg xmlns="http://www.w3.org/2000/svg" id="Capa_1" enable-background="new 0 0 512.11 512.11" height="512px" viewBox="0 0 512.11 512.11" width="512px"><g><g><path d="m256.055 138.56 59.421-57.612c9.187-8.959 14.246-20.952 14.246-33.771 0-26.014-21.163-47.177-47.177-47.177-9.551 0-18.765 2.918-26.49 8.16-7.725-5.242-16.939-8.16-26.49-8.16-26.014 0-47.177 21.163-47.177 47.176 0 12.819 5.06 24.813 14.277 33.803zm-26.49-108.56c5.539 0 10.773 2.706 14.002 7.238l4.485 6.299h16.006l4.485-6.299c3.229-4.532 8.463-7.238 14.002-7.238 9.472 0 17.177 7.705 17.177 17.176 0 4.663-1.844 9.029-5.16 12.264l-38.507 37.335-38.475-37.304c-3.348-3.266-5.191-7.632-5.191-12.295-.001-9.471 7.704-17.176 17.176-17.176z" data-original="#000000" class="active-path" data-old_color="#000000" fill="#EFC41E"/><path d="m287.156 152.11v208.9c0 17.148-13.952 31.101-31.101 31.101s-31.101-13.952-31.101-31.101v-208.9h-123.358v205.541c0 85.169 69.29 154.459 154.459 154.459s154.459-69.29 154.459-154.459v-205.541zm93.358 30v49.633h-63.358v-49.633zm-185.559 0v49.633h-63.358v-49.633zm61.1 300c-68.627 0-124.459-55.832-124.459-124.459v-95.908h63.358v99.267c0 33.691 27.409 61.101 61.101 61.101s61.101-27.409 61.101-61.101v-99.267h63.358v95.908c0 68.627-55.832 124.459-124.459 124.459z" data-original="#000000" class="active-path" data-old_color="#000000" fill="#EFC41E"/></g></g> </svg>
