<?xml version="1.0"?>
<svg xmlns="http://www.w3.org/2000/svg" id="Layer_1" enable-background="new 0 0 48 48" height="512px" viewBox="0 0 48 48" width="512px"><g><g><path d="m24 2.5c-8 0-14.5 6.5-14.5 14.5 0 7.5 11.98 22.29 13.34 23.95.28.35.71.55 1.16.55s.87-.2 1.16-.55c1.36-1.66 13.34-16.45 13.34-23.95 0-8-6.5-14.5-14.5-14.5zm0 35.1c-4.04-5.14-11.5-15.68-11.5-20.6 0-6.34 5.16-11.5 11.5-11.5s11.5 5.16 11.5 11.5c0 4.92-7.46 15.46-11.5 20.6z" data-original="#000000" class="active-path" data-old_color="#000000" fill="#70AF22"/><path d="m24 10.5c-3.03 0-5.5 2.47-5.5 5.5s2.47 5.5 5.5 5.5 5.5-2.47 5.5-5.5-2.47-5.5-5.5-5.5zm0 8c-1.38 0-2.5-1.12-2.5-2.5s1.12-2.5 2.5-2.5 2.5 1.12 2.5 2.5-1.12 2.5-2.5 2.5z" data-original="#000000" class="active-path" data-old_color="#000000" fill="#70AF22"/></g></g> </svg>
