<?xml version="1.0"?>
<svg xmlns="http://www.w3.org/2000/svg" id="Capa_1" enable-background="new 0 0 511.985 511.985" height="512px" viewBox="0 0 511.985 511.985" width="512px" class=""><g><g id="XMLID_765_"><g id="XMLID_261_"><path id="XMLID_264_" d="m424.739 95.024c-2.864-4.722-9.013-6.229-13.736-3.363-4.722 2.864-6.228 9.014-3.363 13.736 42.417 69.926 31.593 159.212-26.323 217.128l-125.317 125.317-125.317-125.316c-33.474-33.473-51.908-77.978-51.908-125.316s18.435-91.843 51.908-125.316c57.916-57.917 147.203-68.741 217.128-26.323 4.722 2.865 10.872 1.359 13.736-3.363 2.865-4.722 1.358-10.872-3.363-13.736-37.079-22.494-81.362-32.153-124.689-27.207-44.661 5.102-85.103 24.634-116.955 56.485-37.25 37.25-57.766 86.778-57.766 139.458s20.515 102.208 57.766 139.459l80.483 80.483c-15.809 2.966-29.643 7.105-40.655 12.226-23.447 10.904-28.368 23.751-28.368 32.609 0 32.825 64.392 50 128 50s128-17.175 128-50c0-8.857-4.922-21.704-28.37-32.607-11.012-5.121-24.845-9.26-40.655-12.226l80.484-80.483c31.851-31.852 51.383-72.293 56.485-116.955 4.949-43.329-4.713-87.611-27.205-124.69zm-60.739 366.961c0 10.182-38.12 30-108 30s-108-19.818-108-30c0-6.673 19.58-21.2 66.486-27.371l34.442 34.442c1.953 1.952 4.512 2.929 7.071 2.929s5.119-.977 7.071-2.929l34.443-34.442c46.907 6.171 66.487 20.697 66.487 27.371z" data-original="#000000" class="active-path" data-old_color="#000000" fill="#70AF22"/><path id="XMLID_267_" d="m344.731 143.079c-24.316-24.316-63.884-24.316-88.204 0l-.527.529-.529-.529c-24.317-24.316-63.885-24.316-88.204 0-24.318 24.318-24.318 63.886 0 88.205l81.661 81.661c1.953 1.952 4.512 2.929 7.071 2.929s5.119-.977 7.071-2.929l81.661-81.661c24.319-24.319 24.319-63.886 0-88.205zm-14.142 74.062-74.589 74.591-74.59-74.59c-16.52-16.52-16.52-43.4 0-59.919 8.261-8.261 19.109-12.39 29.96-12.39 10.849 0 21.701 4.131 29.959 12.39l7.6 7.6c3.905 3.905 10.237 3.905 14.143 0l7.599-7.6c16.521-16.52 43.4-16.52 59.919 0 16.519 16.518 16.519 43.399-.001 59.918z" data-original="#000000" class="active-path" data-old_color="#000000" fill="#70AF22"/><path id="XMLID_1292_" d="m388.389 74.824c2.63 0 5.21-1.07 7.07-2.93 1.86-1.87 2.93-4.44 2.93-7.07s-1.07-5.21-2.93-7.07c-1.86-1.87-4.44-2.93-7.07-2.93s-5.21 1.06-7.07 2.93c-1.86 1.86-2.93 4.44-2.93 7.07s1.07 5.21 2.93 7.07c1.86 1.861 4.44 2.93 7.07 2.93z" data-original="#000000" class="active-path" data-old_color="#000000" fill="#70AF22"/></g></g></g> </svg>
