<?xml version="1.0"?>
<svg xmlns="http://www.w3.org/2000/svg" id="Capa_1" enable-background="new 0 0 24 24" height="512px" viewBox="0 0 24 24" width="512px"><g><g id="_x35_"><path d="m18 2c2.206 0 4 1.794 4 4v12c0 2.206-1.794 4-4 4h-12c-2.206 0-4-1.794-4-4v-12c0-2.206 1.794-4 4-4zm0-2h-12c-3.314 0-6 2.686-6 6v12c0 3.314 2.686 6 6 6h12c3.314 0 6-2.686 6-6v-12c0-3.314-2.686-6-6-6z" data-original="#000000" class="active-path" data-old_color="#000000" fill="#52B8E2"/></g><g id="_x34_"><path d="m5 10c-.552 0-1-.448-1-1v-4c0-.552.448-1 1-1h4c.552 0 1 .448 1 1s-.448 1-1 1h-3v3c0 .552-.448 1-1 1z" data-original="#000000" class="active-path" data-old_color="#000000" fill="#52B8E2"/></g><g id="_x33_"><path d="m9 20h-4c-.552 0-1-.447-1-1v-4c0-.553.448-1 1-1s1 .447 1 1v3h3c.552 0 1 .447 1 1s-.448 1-1 1z" data-original="#000000" class="active-path" data-old_color="#000000" fill="#52B8E2"/></g><g id="_x32_"><path d="m19 10c-.553 0-1-.448-1-1v-3h-3c-.553 0-1-.448-1-1s.447-1 1-1h4c.553 0 1 .448 1 1v4c0 .552-.447 1-1 1z" data-original="#000000" class="active-path" data-old_color="#000000" fill="#52B8E2"/></g><g id="_x31_"><path d="m19 20h-4c-.553 0-1-.447-1-1s.447-1 1-1h3v-3c0-.553.447-1 1-1s1 .447 1 1v4c0 .553-.447 1-1 1z" data-original="#000000" class="active-path" data-old_color="#000000" fill="#52B8E2"/></g></g> </svg>
