<?xml version="1.0"?>
<svg xmlns="http://www.w3.org/2000/svg" xmlns:xlink="http://www.w3.org/1999/xlink" version="1.1" id="Capa_1" x="0px" y="0px" viewBox="0 0 512 512" style="enable-background:new 0 0 512 512;" xml:space="preserve" width="512px" height="512px" class=""><g><g>
	<g>
		<g>
			<path d="M207,200c0-11.046-8.954-20-20-20h-80c-11.046,0-20,8.954-20,20v35.878H0v40h87V310c0,11.046,8.954,20,20,20h80     c11.046,0,20-8.954,20-20v-34.122h305v-40H207V200z M167,290h-40v-70h40V290z" data-original="#000000" class="active-path" data-old_color="#000000" fill="#209981"/>
			<path d="M431,382c0-11.046-8.954-20-20-20h-80c-11.046,0-20,8.954-20,20v35H0v40h311v35c0,11.046,8.954,20,20,20h80     c11.046,0,20-8.954,20-20v-35h81v-40h-81V382z M391,472h-40v-70h40V472z" data-original="#000000" class="active-path" data-old_color="#000000" fill="#209981"/>
			<path d="M433,56V20c0-11.046-8.954-20-20-20h-80c-11.046,0-20,8.954-20,20v36H0v40h313v34c0,11.046,8.954,20,20,20h80     c11.046,0,20-8.954,20-20V96h79V56H433z M393,110h-40V40h40V110z" data-original="#000000" class="active-path" data-old_color="#000000" fill="#209981"/>
		</g>
	</g>
</g></g> </svg>
