<?xml version="1.0"?>
<svg xmlns="http://www.w3.org/2000/svg" fill="none" height="512px" viewBox="0 0 24 24" width="512px"><g><path clip-rule="evenodd" d="m18.25 7.5c.9665 0 1.75-.7835 1.75-1.75s-.7835-1.75-1.75-1.75-1.75.7835-1.75 1.75.7835 1.75 1.75 1.75zm0 2c2.0711 0 3.75-1.67893 3.75-3.75s-1.6789-3.75-3.75-3.75-3.75 1.67893-3.75 3.75c0 .17993.0127.35691.0372.53008l-6.13589 3.06793c-.67859-.67842-1.61595-1.09801-2.65131-1.09801-2.07107 0-3.75 1.67893-3.75 3.75 0 2.0711 1.67893 3.75 3.75 3.75 1.03536 0 1.97273-.4196 2.65132-1.098l6.13588 3.0679c-.0245.1732-.0372.3502-.0372.5301 0 2.0711 1.6789 3.75 3.75 3.75s3.75-1.6789 3.75-3.75-1.6789-3.75-3.75-3.75c-1.1745 0-2.2228.5399-2.9104 1.3851l-5.9507-2.9754c.07258-.2912.1111-.596.1111-.9097s-.03853-.6185-.1111-.9097l5.9507-2.97536c.6876.84515 1.7359 1.38506 2.9104 1.38506zm-12.5 4.25c.9665 0 1.75-.7835 1.75-1.75s-.7835-1.75-1.75-1.75-1.75.7835-1.75 1.75.7835 1.75 1.75 1.75zm14.25 4.5c0 .9665-.7835 1.75-1.75 1.75s-1.75-.7835-1.75-1.75.7835-1.75 1.75-1.75 1.75.7835 1.75 1.75z" fill="#EE4E25" fill-rule="evenodd" data-original="#000000" class="active-path" data-old_color="rgb(0,0,0)"/></g> </svg>
