<svg id="Layer_1" enable-background="new 0 0 511.999 511.999" height="512" viewBox="0 0 511.999 511.999" width="512" xmlns="http://www.w3.org/2000/svg"><g><path d="m255.998 0c-52.867 0-95.721 42.855-95.721 95.722v35.343l2.815 2.129h26.399v-37.73l11.161-8.928h107.483l13.847 8.928v35.602h24.227l5.511-.857v-34.487c-.001-52.867-42.855-95.722-95.722-95.722z" fill="#fbc56c"/><g><path d="m281.1 3.333c-8.001-2.169-16.415-3.333-25.102-3.333-52.867 0-95.721 42.855-95.721 95.722v35.343l2.815 2.129h26.399v-37.73l11.161-8.928h10.27c3.816-40.081 32.343-72.949 70.178-83.203z" fill="#ebb865"/></g><path d="m187.301 125.764-2.642-2.665c-16.155-2.157-33.046 10.241-33.046 27.048 0 16.445 14.459 29.876 33.046 27.063l2.642-3.066z" fill="#ffcebe"/><path d="m172.728 150.147c0-10.138 6.15-18.666 14.573-23.368v-1.014l-2.642-2.665c-16.155-2.157-33.046 10.241-33.046 27.048 0 16.445 14.459 29.876 33.046 27.063l2.551-2.961c-8.807-4.685-14.482-13.802-14.482-24.103z" fill="#f5b2a2"/><path d="m327.34 123.079-1.951 3.806v49.277l1.951 1.049c18.556 2.81 33.046-10.598 33.046-27.064 0-16.499-14.545-29.841-33.046-27.068z" fill="#ffcebe"/><path d="m346.505 126.403c-5.376-3.035-11.968-4.403-19.164-3.324l-1.951 3.806v49.277l1.951 1.049c7.207 1.091 13.795-.272 19.164-3.302z" fill="#f5b2a2"/><path d="m271.583 306.871h-27.664l-33.439-20.888-15.753 24.065 21.205 194.105 7.998 7.847h64.139l7.016-5.615 22.278-200.372-20.337-24.584z" fill="#eee1dd"/><path d="m296.63 280.95 2.229-7.349c-1.086-1.302-1.735-2.956-1.74-4.732l-.01-25.056-3.976-4.248h-74.283l-4.013 5.365v23.893c0 2.129-.718 3.64-1.721 4.756l1.787 5.647-4.422 6.755 33.439 20.888h27.664l25.443-25.443z" fill="#ffcebe"/><path d="m254.67 239.565h-35.82l-4.013 5.365v23.893c0 2.129-.718 3.64-1.721 4.756l1.787 5.647-4.422 6.755 33.439 20.888h10.751v-67.304z" fill="#f5b2a2"/><path d="m405.781 316.026c-2.82-1.092-33.905-13.13-61.379-23.77l-6.735 7.557-26.442 202.107 7.684 10.079h113.687c7.402 0 13.402-6.001 13.402-13.402 0-11.073 0-107.155 0-120.192-.001-28.453-18.218-53.325-40.217-62.379z" fill="#524798"/><path d="m199.964 496.769-28.502-199.513-4.183-5.077-61.059 23.847c-17.194 7.077-40.217 29.341-40.217 62.38v120.192c0 7.401 6 13.402 13.402 13.402h114.048z" fill="#524798"/><path d="m97.072 498.597c0-10.865 0-123.88 0-136.132 0-23.382 11.533-41.359 24.369-52.383l-15.221 5.945c-17.194 7.077-40.217 29.341-40.217 62.38v120.192c0 7.401 6 13.402 13.402 13.402h31.069c-7.402-.002-13.402-6.003-13.402-13.404z" fill="#453d81"/><path d="m270.051 338.88-2.952-2.477h-24.039l-1.112 2.477-18.018 173.12h64.139z" fill="#f27182"/><path d="m270.051 338.88-2.952-2.477h-24.039l-1.112 2.477-18.018 173.12h28.679l17.73-170.348z" fill="#ed5469"/><path d="m391.698 511.999v-141.485c0-4.267-3.459-7.726-7.726-7.726s-7.726 3.459-7.726 7.726v141.485z" fill="#453d81"/><path d="m135.754 511.999v-141.485c0-4.267-3.459-7.726-7.726-7.726s-7.726 3.459-7.726 7.726v141.485z" fill="#453d81"/><path d="m272.292 300.647-1.903-.824c-9.994 0-18.785 0-28.779 0l-2.026 1.082-9.58 16.225v3.072l11.945 18.678h28.102l11.945-18.678.855-2.815z" fill="#f27182"/><path d="m239.024 295.065-25.909-21.485c-.44.49-.93.911-1.447 1.263l-15.637 6.107-1.303 1.626 3.091 25.927 1.648.897 18.043 14.962c3.325 2.758 8.305 2.045 10.722-1.536l12.184-18.045c2.103-3.114 1.501-7.317-1.392-9.716z" fill="#fff5f5"/><path d="m315.935 281.231c-7.692-2.979-12.997-5.034-14.064-5.446-1.202-.465-2.22-1.233-3.012-2.184l-25.884 21.464c-2.893 2.399-3.495 6.602-1.392 9.716l12.184 18.045c2.418 3.581 7.397 4.294 10.722 1.536l18.043-14.962 1.804-1.927 3.026-24.145z" fill="#fff5f5"/><path d="m351.197 382.966c.432-1.728.018-3.558-1.116-4.932l-10.12-12.252c-1.956-2.367-1.643-5.867.701-7.851l13.245-11.207c1.605-1.358 2.315-3.5 1.84-5.547l-11.346-48.922c-10.65-4.125-20.759-8.039-28.467-11.025l-27.865 230.768h30.839z" fill="#5e54ac"/><path d="m196.031 280.95-28.752 11.229-11.027 48.999c-.475 2.047.235 4.189 1.84 5.547l13.245 11.207c2.344 1.983 2.657 5.483.701 7.851l-10.12 12.252c-1.134 1.373-1.549 3.204-1.116 4.932l32.65 129.033h30.478z" fill="#5e54ac"/><path d="m309.188 81h-78.095c-2.631 3.377-4.205 7.616-4.205 12.231v115.886c0 4.341.447 8.576 1.271 12.674h80.833v-26.27l15.582-12.62 2.766-5.691v-78.058c.001-10.025-8.127-18.152-18.152-18.152z" fill="#ffdecf"/><path d="m229.805 221.79c-1.478-5.221-2.286-10.724-2.286-16.419v-108.367c0-6.801 3.645-12.736 9.077-16.005h-33.783c-10.025 0-18.153 8.127-18.153 18.153v78.058l1.612 3.63 13.65 10.559v30.391z" fill="#ffcebe"/><path d="m306.613 197.059v6.79c0 7.694-6.237 13.931-13.931 13.931h-5.379c-4.326 0-8.489-1.653-11.637-4.621s-7.311-4.621-11.637-4.621h-8.029-8.029c-4.326 0-8.489 1.653-11.637 4.621s-7.311 4.621-11.637 4.621h-5.379c-7.694 0-13.931-6.237-13.931-13.931v-6.79c0-5.021-2.702-9.654-7.073-12.126l-13.655-7.723v27.203c0 32.284 26.172 58.456 58.456 58.456h12.885 12.884c32.284 0 58.456-26.172 58.456-58.456 0-8.921 0-18.797 0-27.203l-13.655 7.723c-4.37 2.472-7.072 7.104-7.072 12.126z" fill="#fbc56c"/><path d="m228.702 217.281c-1.303.317-2.643.499-4.005.499h-5.379c-7.694 0-13.931-6.237-13.931-13.931v-6.79c0-5.021-2.702-9.654-7.073-12.126l-13.655-7.723v27.203c0 32.284 26.172 58.456 58.456 58.456h12.885 12.884c.308 0 .611-.018.917-.023-20.797-6.469-36.753-23.918-41.099-45.565z" fill="#ebb865"/></g></svg>